<svg width="22" height="24" viewBox="0 0 22 24" fill="none" xmlns="http://www.w3.org/2000/svg">
<path d="M17.5003 7.60011C17.5003 5.84965 16.8049 4.17089 15.5671 2.93313C14.3294 1.69537 12.6506 1 10.9002 1C9.1497 1 7.47094 1.69537 6.23318 2.93313C4.99542 4.17089 4.30005 5.84965 4.30005 7.60011C4.30005 15.3002 1 17.5003 1 17.5003H20.8003C20.8003 17.5003 17.5003 15.3002 17.5003 7.60011Z" stroke="#30B44B" stroke-width="2" stroke-linecap="round" stroke-linejoin="round"/>
<path d="M12.8032 21.9003C12.6098 22.2337 12.3322 22.5105 11.9983 22.7028C11.6643 22.8952 11.2856 22.9964 10.9002 22.9964C10.5148 22.9964 10.1361 22.8952 9.80213 22.7028C9.46814 22.5105 9.19056 22.2337 8.99716 21.9003" stroke="#30B44B" stroke-width="2" stroke-linecap="round" stroke-linejoin="round"/>
</svg>
