<svg width="19" height="17" viewBox="0 0 19 17" fill="none" xmlns="http://www.w3.org/2000/svg">
<path fill-rule="evenodd" clip-rule="evenodd" d="M0.0500793 1.74993C0.0500793 1.39189 0.192311 1.04851 0.445485 0.795339C0.698659 0.542165 1.04204 0.399933 1.40008 0.399933H17.6001C17.9581 0.399933 18.3015 0.542165 18.5547 0.795339C18.8078 1.04851 18.9501 1.39189 18.9501 1.74993C18.9501 2.10798 18.8078 2.45135 18.5547 2.70453C18.3015 2.9577 17.9581 3.09993 17.6001 3.09993H1.40008C1.04204 3.09993 0.698659 2.9577 0.445485 2.70453C0.192311 2.45135 0.0500793 2.10798 0.0500793 1.74993ZM0.0500793 8.49993C0.0500793 8.14189 0.192311 7.79851 0.445485 7.54534C0.698659 7.29216 1.04204 7.14993 1.40008 7.14993H17.6001C17.9581 7.14993 18.3015 7.29216 18.5547 7.54534C18.8078 7.79851 18.9501 8.14189 18.9501 8.49993C18.9501 8.85798 18.8078 9.20135 18.5547 9.45453C18.3015 9.7077 17.9581 9.84993 17.6001 9.84993H1.40008C1.04204 9.84993 0.698659 9.7077 0.445485 9.45453C0.192311 9.20135 0.0500793 8.85798 0.0500793 8.49993ZM0.0500793 15.2499C0.0500793 14.8919 0.192311 14.5485 0.445485 14.2953C0.698659 14.0422 1.04204 13.8999 1.40008 13.8999H17.6001C17.9581 13.8999 18.3015 14.0422 18.5547 14.2953C18.8078 14.5485 18.9501 14.8919 18.9501 15.2499C18.9501 15.608 18.8078 15.9514 18.5547 16.2045C18.3015 16.4577 17.9581 16.5999 17.6001 16.5999H1.40008C1.04204 16.5999 0.698659 16.4577 0.445485 16.2045C0.192311 15.9514 0.0500793 15.608 0.0500793 15.2499Z" fill="#30B44B"/>
</svg>
