<svg width="24" height="23" viewBox="0 0 24 23" fill="none" xmlns="http://www.w3.org/2000/svg">
<path d="M7.70374 15.7H20.8493V16.5H7.19975C6.26363 16.5 5.54984 15.771 5.54984 14.95C5.54984 14.6823 5.62151 14.4355 5.74401 14.2301L5.74409 14.2301L5.75002 14.2198L7.36996 11.4023L7.56969 11.055L7.39195 10.6958L3.0721 1.96733L2.86556 1.55H2.39992H0.75V0.75H3.45634L4.37845 2.63024L4.5843 3.05H5.05183H22.7982C22.8823 3.0503 22.9633 3.07153 23.033 3.10961C23.1027 3.14771 23.157 3.20035 23.1936 3.25934C23.2301 3.31809 23.2486 3.38229 23.2499 3.44588C23.2513 3.50871 23.2359 3.57245 23.2031 3.63143C23.2027 3.63212 23.2023 3.63281 23.202 3.6335L18.9093 11.0914L18.9084 11.093C18.6371 11.5671 18.0967 11.9 17.4594 11.9H8.51971H8.08624L7.86985 12.2756L6.78988 14.1501L6.7395 14.2375L6.71403 14.3352L6.67803 14.4732L6.65375 14.5663V14.6625C6.65375 15.2674 7.1519 15.7 7.70374 15.7ZM5.56184 20.7C5.56184 19.8742 6.26862 19.15 7.19975 19.15C8.13587 19.15 8.84967 19.879 8.84967 20.7C8.84967 21.521 8.13587 22.25 7.19975 22.25C6.26862 22.25 5.56184 21.5258 5.56184 20.7ZM17.5614 20.7C17.5614 19.8742 18.2682 19.15 19.1993 19.15C20.1355 19.15 20.8493 19.879 20.8493 20.7C20.8493 21.521 20.1355 22.25 19.1993 22.25C18.2682 22.25 17.5614 21.5258 17.5614 20.7Z" stroke="#30B44B" stroke-width="1.5"/>
</svg>
