<svg width="23" height="23" viewBox="0 0 23 23" fill="none" xmlns="http://www.w3.org/2000/svg">
<path d="M15.3333 3.83331H17.25C17.7583 3.83331 18.2458 4.03525 18.6053 4.39469C18.9647 4.75414 19.1666 5.24165 19.1666 5.74998V19.1666C19.1666 19.675 18.9647 20.1625 18.6053 20.5219C18.2458 20.8814 17.7583 21.0833 17.25 21.0833H5.74998C5.24165 21.0833 4.75414 20.8814 4.39469 20.5219C4.03525 20.1625 3.83331 19.675 3.83331 19.1666V5.74998C3.83331 5.24165 4.03525 4.75414 4.39469 4.39469C4.75414 4.03525 5.24165 3.83331 5.74998 3.83331H7.66665" stroke="white" stroke-width="1.2" stroke-linecap="round" stroke-linejoin="round"/>
<path d="M10.5417 9.58337H15.3334" stroke="white" stroke-width="1.2" stroke-linecap="round" stroke-linejoin="round"/>
<path d="M10.5417 13.4167H15.3334" stroke="white" stroke-width="1.2" stroke-linecap="round" stroke-linejoin="round"/>
<path d="M10.5417 17.25H15.3334" stroke="white" stroke-width="1.2" stroke-linecap="round" stroke-linejoin="round"/>
<path d="M7.90625 9.58337H7.91253" stroke="white" stroke-width="1.2" stroke-linecap="round" stroke-linejoin="round"/>
<path d="M7.90625 13.4167H7.91253" stroke="white" stroke-width="1.2" stroke-linecap="round" stroke-linejoin="round"/>
<path d="M7.90625 17.25H7.91253" stroke="white" stroke-width="1.2" stroke-linecap="round" stroke-linejoin="round"/>
<path d="M14.375 1.91669H8.62502C8.09575 1.91669 7.66669 2.34575 7.66669 2.87502V4.79169C7.66669 5.32096 8.09575 5.75002 8.62502 5.75002H14.375C14.9043 5.75002 15.3334 5.32096 15.3334 4.79169V2.87502C15.3334 2.34575 14.9043 1.91669 14.375 1.91669Z" stroke="white" stroke-width="1.2" stroke-linecap="round" stroke-linejoin="round"/>
</svg>
