<svg width="19" height="19" viewBox="0 0 19 19" fill="none" xmlns="http://www.w3.org/2000/svg">
<g clip-path="url(#clip0)">
<path d="M17.2187 16.6252H1.78126C0.799027 16.6252 0 15.8261 0 14.8439V11.8751C0 11.5469 0.265556 11.2814 0.593754 11.2814C1.57599 11.2814 2.37501 10.4824 2.37501 9.50012C2.37501 8.51789 1.57599 7.71886 0.593754 7.71886C0.265556 7.7189 0 7.45335 0 7.12515V4.15638C0 3.17415 0.799027 2.37512 1.78126 2.37512H17.2188C18.201 2.37512 19 3.17415 19 4.15638V7.12515C19 7.45335 18.7345 7.7189 18.4063 7.7189C17.4241 7.7189 16.625 8.51793 16.625 9.50016C16.625 10.4824 17.4241 11.2814 18.4063 11.2814C18.7345 11.2814 19 11.547 19 11.8752V14.8439C19 15.8261 18.201 16.6252 17.2187 16.6252ZM1.18751 12.4092V14.8439C1.18751 15.1715 1.45366 15.4377 1.78126 15.4377H17.2188C17.5464 15.4377 17.8125 15.1715 17.8125 14.8439V12.4092C16.4592 12.1332 15.4375 10.9341 15.4375 9.50012C15.4375 8.06617 16.4592 6.86711 17.8125 6.59108V4.15638C17.8125 3.82878 17.5464 3.56263 17.2188 3.56263H1.78126C1.45366 3.56263 1.18751 3.82878 1.18751 4.15638V6.59112C2.54083 6.86711 3.56252 8.06621 3.56252 9.50016C3.56252 10.9341 2.54083 12.1332 1.18751 12.4092Z" fill="white"/>
<path d="M7.16315 14.0337L10.7244 4.53702L11.8363 4.95398L8.27503 14.4506L7.16315 14.0337Z" fill="white"/>
<path d="M6.69093 9.69975C5.7087 9.69975 4.90967 8.90073 4.90967 7.91849C4.90967 6.93626 5.7087 6.13723 6.69093 6.13723C7.67316 6.13723 8.47219 6.93626 8.47219 7.91849C8.47219 8.90073 7.67316 9.69975 6.69093 9.69975ZM6.69093 7.32474C6.36333 7.32474 6.09718 7.5909 6.09718 7.91849C6.09718 8.24609 6.36333 8.51225 6.69093 8.51225C7.01853 8.51225 7.28468 8.24609 7.28468 7.91849C7.28468 7.5909 7.01853 7.32474 6.69093 7.32474Z" fill="white"/>
<path d="M12.8286 13.3823C11.8464 13.3823 11.0474 12.5833 11.0474 11.6011C11.0474 10.6188 11.8464 9.81982 12.8286 9.81982C13.8109 9.81982 14.6099 10.6188 14.6099 11.6011C14.6099 12.5833 13.8109 13.3823 12.8286 13.3823ZM12.8286 11.0073C12.501 11.0073 12.2349 11.2735 12.2349 11.6011C12.2349 11.9287 12.501 12.1948 12.8286 12.1948C13.1562 12.1948 13.4224 11.9287 13.4224 11.6011C13.4224 11.2735 13.1562 11.0073 12.8286 11.0073Z" fill="white"/>
</g>
<defs>
<clipPath id="clip0">
<rect width="19" height="19" fill="white"/>
</clipPath>
</defs>
</svg>
