<svg width="22" height="16" viewBox="0 0 22 16" fill="none" xmlns="http://www.w3.org/2000/svg">
<path d="M14.9834 5.43338V6.58594L15.9275 5.92488L20.4834 2.73499V13.2651L15.9275 10.0752L14.9834 9.41416V10.5667V14.4167C14.9834 14.5007 14.95 14.5812 14.8906 14.6406C14.8312 14.7 14.7507 14.7334 14.6667 14.7334H1.83335C1.74937 14.7334 1.66882 14.7 1.60944 14.6406C1.55005 14.5812 1.51669 14.5007 1.51669 14.4167V1.58338C1.51669 1.4994 1.55005 1.41885 1.60944 1.35947C1.66882 1.30008 1.74937 1.26672 1.83335 1.26672H14.6667C14.7507 1.26672 14.8312 1.30008 14.8906 1.35947C14.95 1.41885 14.9834 1.4994 14.9834 1.58338V5.43338ZM20.595 13.9946C20.5113 13.9891 20.4306 13.9607 20.3619 13.9125V2.08755C20.4306 2.03939 20.5113 2.01101 20.595 2.00551C20.6787 2.00001 20.7624 2.01761 20.8368 2.05638C20.9112 2.09515 20.9735 2.1536 21.017 2.22537C21.0605 2.29714 21.0834 2.37947 21.0834 2.46338V13.5367C21.0834 13.6206 21.0605 13.703 21.017 13.7747C20.9735 13.8465 20.9112 13.905 20.8368 13.9437C20.7624 13.9825 20.6787 14.0001 20.595 13.9946ZM7.38335 4.69445V4.49342L6.78348 4.4933C6.56063 4.49326 6.34461 4.5702 6.17198 4.71113C5.99935 4.85205 5.88071 5.04829 5.83614 5.26663L5.83011 5.29618L5.82707 5.32619L5.81974 5.3986L5.81669 5.42875V5.45905V10.5391C5.81669 10.5392 5.81669 10.5392 5.81669 10.5392C5.81668 10.6957 5.85468 10.8499 5.92741 10.9885L6.45869 10.7097C6.48628 10.7622 6.52623 10.8073 6.57511 10.8411C6.62398 10.8748 6.68031 10.8961 6.73926 10.9033L6.6671 11.4989C6.66711 11.4989 6.66711 11.4989 6.66711 11.4989C6.82252 11.5177 6.98017 11.4985 7.12652 11.443L7.15325 11.4328L7.1789 11.4202L7.24581 11.3872L7.27508 11.3727L7.30261 11.3552L11.2947 8.81422L11.2959 8.81347C11.4187 8.7349 11.5221 8.62958 11.5985 8.50538C11.6748 8.38119 11.7221 8.24133 11.7367 8.09628C11.7513 7.95124 11.733 7.80477 11.683 7.66782L11.1194 7.87349L11.683 7.66782C11.633 7.53086 11.5527 7.40699 11.4481 7.30546L11.4267 7.28465L11.4033 7.26608L11.3455 7.22024L11.321 7.20083L11.2947 7.18405L7.38335 4.69445Z" stroke="white" stroke-width="1.2"/>
</svg>
