<svg width="54" height="64" viewBox="0 0 54 64" fill="none" xmlns="http://www.w3.org/2000/svg">
<g clip-path="url(#clip0)" filter="url(#filter0_d)">
<path d="M38.9166 14.1667C38.5646 14.1667 38.2126 14.0328 37.9449 13.7633L35.6533 11.4717C35.2591 11.0793 35.1436 10.4872 35.3544 9.97383C35.5671 9.46049 36.0694 9.12499 36.6249 9.12499H41.2083C41.7656 9.12499 42.2661 9.46049 42.4788 9.97383C42.6896 10.4872 42.5741 11.0793 42.1799 11.4717L39.8883 13.7633C39.6206 14.0328 39.2686 14.1667 38.9166 14.1667Z" fill="#00BCD4"/>
<path d="M38.9165 13.7083C38.1575 13.7083 37.5415 13.0923 37.5415 12.3333V6.37499C37.5415 5.61599 38.1575 4.99999 38.9165 4.99999C39.6755 4.99999 40.2915 5.61599 40.2915 6.37499V12.3333C40.2915 13.0923 39.6755 13.7083 38.9165 13.7083Z" fill="#00BCD4"/>
<path d="M15.0833 14.1667C14.7313 14.1667 14.3793 14.0328 14.1116 13.7633L11.8199 11.4717C11.4258 11.0793 11.3084 10.4872 11.5211 9.97383C11.7338 9.46049 12.2343 9.12499 12.7916 9.12499H17.3749C17.9323 9.12499 18.4328 9.46049 18.6454 9.97383C18.8581 10.4872 18.7408 11.0793 18.3466 11.4717L16.0549 13.7633C15.7873 14.0328 15.4353 14.1667 15.0833 14.1667Z" fill="#00BCD4"/>
<path d="M15.0835 13.7083C14.3245 13.7083 13.7085 13.0923 13.7085 12.3333V6.37499C13.7085 5.61599 14.3245 4.99999 15.0835 4.99999C15.8425 4.99999 16.4585 5.61599 16.4585 6.37499V12.3333C16.4585 13.0923 15.8425 13.7083 15.0835 13.7083Z" fill="#00BCD4"/>
<path d="M13.7083 6.37499V9.12499H12.7916C12.2343 9.12499 11.7338 9.46049 11.5211 9.97383C11.3084 10.4872 11.4258 11.0793 11.8199 11.4717L14.1116 13.7633C14.3793 14.0328 14.7313 14.1667 15.0833 14.1667V13.7083V4.99999C14.3243 4.99999 13.7083 5.61599 13.7083 6.37499Z" fill="#00A4B9"/>
<path d="M37.5416 6.37499V9.12499H36.6249C36.0676 9.12499 35.5671 9.46049 35.3544 9.97383C35.1436 10.4872 35.2591 11.0793 35.6533 11.4717L37.9449 13.7633C38.2126 14.0328 38.5646 14.1667 38.9166 14.1667V13.7083V4.99999C38.1576 4.99999 37.5416 5.61599 37.5416 6.37499Z" fill="#00A4B9"/>
<path d="M32.5 32.4999C32.5 35.5249 30.025 37.9999 27 37.9999C23.975 37.9999 21.5 35.5249 21.5 32.4999V25.1665H10.5V32.4999C10.5 41.5932 17.9067 48.9999 27 48.9999C36.0933 48.9999 43.5 41.5932 43.5 32.4999V25.1665H32.5V32.4999Z" fill="#FFC107"/>
<path d="M39.8333 17.8335H36.1667C34.15 17.8335 32.5 19.4835 32.5 21.5001V25.1668H43.5V21.5001C43.5 19.4835 41.85 17.8335 39.8333 17.8335Z" fill="#607D8B"/>
<path d="M21.5 21.5001C21.5 19.4835 19.85 17.8335 17.8333 17.8335H14.1667C12.15 17.8335 10.5 19.4835 10.5 21.5001V25.1668H21.5V21.5001Z" fill="#607D8B"/>
<path d="M21.5 25.1665H10.5V32.4999C10.5 41.5932 17.9067 48.9999 27 48.9999V37.9999C23.975 37.9999 21.5 35.5249 21.5 32.4999V25.1665Z" fill="#DEA806"/>
<path d="M17.8333 17.8335H14.1667C12.15 17.8335 10.5 19.4835 10.5 21.5001V25.1668H21.5V21.5001C21.5 19.4835 19.85 17.8335 17.8333 17.8335Z" fill="#546D79"/>
</g>
<defs>
<filter id="filter0_d" x="-5" y="0" width="64" height="64" filterUnits="userSpaceOnUse" color-interpolation-filters="sRGB">
<feFlood flood-opacity="0" result="BackgroundImageFix"/>
<feColorMatrix in="SourceAlpha" type="matrix" values="0 0 0 0 0 0 0 0 0 0 0 0 0 0 0 0 0 0 127 0"/>
<feOffset dy="5"/>
<feGaussianBlur stdDeviation="5"/>
<feColorMatrix type="matrix" values="0 0 0 0 0.533333 0 0 0 0 0.533333 0 0 0 0 0.533333 0 0 0 0.25 0"/>
<feBlend mode="normal" in2="BackgroundImageFix" result="effect1_dropShadow"/>
<feBlend mode="normal" in="SourceGraphic" in2="effect1_dropShadow" result="shape"/>
</filter>
<clipPath id="clip0">
<rect width="44" height="44" fill="white" transform="translate(5 5)"/>
</clipPath>
</defs>
</svg>
