<svg width="21" height="21" viewBox="0 0 21 21" fill="none" xmlns="http://www.w3.org/2000/svg">
<path d="M10.5 7.18751C11.2188 4.35024 13.9334 2.90151 19.8438 2.87501C19.9382 2.87465 20.0319 2.893 20.1192 2.92899C20.2066 2.96499 20.286 3.01791 20.3528 3.08473C20.4196 3.15154 20.4725 3.23092 20.5085 3.31828C20.5445 3.40564 20.5629 3.49927 20.5625 3.59376V16.5313C20.5625 16.7219 20.4868 16.9047 20.352 17.0395C20.2172 17.1743 20.0344 17.25 19.8438 17.25C14.0938 17.25 11.8724 18.4094 10.5 20.125C9.13573 18.418 6.90626 17.25 1.15626 17.25C0.712427 17.25 0.437505 16.8884 0.437505 16.4446V3.59376C0.437149 3.49927 0.455497 3.40564 0.491491 3.31828C0.527485 3.23092 0.580414 3.15154 0.647228 3.08473C0.714041 3.01791 0.793417 2.96499 0.88078 2.92899C0.968144 2.893 1.06177 2.87465 1.15626 2.87501C7.06663 2.90151 9.78125 4.35024 10.5 7.18751Z" stroke="white" stroke-width="1.5" stroke-linecap="round" stroke-linejoin="round"/>
<path d="M10.5 7.1875V20.125" stroke="white" stroke-width="1.5" stroke-linecap="round" stroke-linejoin="round"/>
</svg>
