<svg width="20" height="20" viewBox="0 0 20 20" fill="none" xmlns="http://www.w3.org/2000/svg">
<path d="M6.41978 13.6H17.3994V14.4H5.99979C5.23122 14.4 4.59986 13.7686 4.59986 13C4.59986 12.7529 4.66338 12.5257 4.7708 12.3377L4.77087 12.3377L4.77536 12.3296L6.12531 9.87955L6.27358 9.61047L6.14192 9.33288L2.54205 1.74288L2.37942 1.4H1.99993H0.6V0.6H2.88892L3.66684 2.25521L3.82888 2.6H4.20986H18.9985C19.068 2.60026 19.1363 2.61849 19.1967 2.65293C19.2572 2.68746 19.3078 2.73711 19.3434 2.79703C19.379 2.85694 19.3985 2.92507 19.3999 2.99477C19.4013 3.0638 19.385 3.13202 19.3525 3.1929C19.3521 3.19349 19.3518 3.19408 19.3515 3.19466L15.7741 9.6802L15.7733 9.68151C15.5369 10.1127 15.0767 10.4 14.5495 10.4H7.09976H6.74565L6.5745 10.71L5.67453 12.34L5.63669 12.4085L5.6177 12.4845L5.5877 12.6045L5.56979 12.6761V12.75C5.56979 13.2214 5.94839 13.6 6.41978 13.6ZM4.60986 18C4.60986 17.2274 5.23513 16.6 5.99979 16.6C6.76837 16.6 7.39973 17.2314 7.39973 18C7.39973 18.7686 6.76837 19.4 5.99979 19.4C5.23513 19.4 4.60986 18.7726 4.60986 18ZM14.6095 18C14.6095 17.2274 15.2348 16.6 15.9995 16.6C16.768 16.6 17.3994 17.2314 17.3994 18C17.3994 18.7686 16.768 19.4 15.9995 19.4C15.2348 19.4 14.6095 18.7726 14.6095 18Z" stroke="white" stroke-width="1.2"/>
</svg>
