<svg width="17" height="20" viewBox="0 0 17 20" fill="none" xmlns="http://www.w3.org/2000/svg">
<path d="M10.375 1H2.875C2.37772 1 1.90081 1.19754 1.54917 1.54917C1.19754 1.90081 1 2.37772 1 2.875V17.875C1 18.3723 1.19754 18.8492 1.54917 19.2008C1.90081 19.5525 2.37772 19.75 2.875 19.75H14.125C14.6223 19.75 15.0992 19.5525 15.4508 19.2008C15.8025 18.8492 16 18.3723 16 17.875V6.625L10.375 1Z" stroke="white" stroke-width="1.3" stroke-linecap="round" stroke-linejoin="round"/>
<path d="M10.375 1V6.625H16" stroke="white" stroke-width="1.3" stroke-linecap="round" stroke-linejoin="round"/>
<path d="M12.25 11.3125H4.75" stroke="white" stroke-width="1.3" stroke-linecap="round" stroke-linejoin="round"/>
<path d="M12.25 15.0625H4.75" stroke="white" stroke-width="1.3" stroke-linecap="round" stroke-linejoin="round"/>
<path d="M6.625 7.5625H5.6875H4.75" stroke="white" stroke-width="1.3" stroke-linecap="round" stroke-linejoin="round"/>
</svg>
